<svg width="100" height="100" viewBox="0 0 100 100" fill="none" xmlns="http://www.w3.org/2000/svg">
<path id="Union" fill-rule="evenodd" clip-rule="evenodd" d="M92 50C92 73.196 73.196 92 50 92C26.804 92 8 73.196 8 50C8 26.804 26.804 8 50 8C52.385 8 54.7235 8.19879 57 8.58071V25.5569L23.863 46.4991V53.2617L58.863 75.3813L65 72V10.7578C80.7882 16.7963 92 32.0888 92 50ZM100 50C100 77.6142 77.6142 100 50 100C22.3858 100 0 77.6142 0 50C0 22.3858 22.3858 0 50 0C77.6142 0 100 22.3858 100 50ZM57 64.7402V35.0206L33.4873 49.8804L57 64.7402Z" fill="black" style="fill:black;fill:black;fill-opacity:1;"/>
</svg>
